<svg xmlns="http://www.w3.org/2000/svg" viewBox="0 0 16 16"><defs><style>.canvas{fill:none;opacity:0}.light-defaultgrey-10{fill:#212121;opacity:.1}.light-defaultgrey,.white{fill:#212121;opacity:1}.white{fill:#fff}.cls-1{opacity:.75}</style></defs><title>IconLightCloseDocument</title><g id="canvas"><path d="M16,16H0V0H16Z" class="canvas"/></g><g id="level-1"><g class="cls-1"><path d="M13.5,4.5v10H2.5V8H6.914L8,6.914V1.5h2.5Z" class="light-defaultgrey-10"/><path d="M14,4.5v10l-.5.5H2.5L2,14.5V8H3v6H13V5H10V2H8V1h2.5l.354.146,3,3Z" class="light-defaultgrey"/></g><path d="M7,.5v6L6.5,7H.5L0,6.5V.5L.5,0h6Z" class="light-defaultgrey"/><path d="M5.146,5.854,3.5,4.207,2,5.707,1.293,5l1.5-1.5L1.293,2,2,1.293l1.5,1.5L5,1.293,5.707,2l-1.5,1.5L5.854,5.146Z" class="white"/></g></svg>