<svg xmlns="http://www.w3.org/2000/svg" viewBox="0 0 16 16">
  <defs>
    <style>.canvas{fill: none; opacity: 0;}.light-defaultgrey-10{fill: #212121; opacity: 0.1;}.light-defaultgrey{fill: #212121; opacity: 1;}.light-teal-10{fill: #006758; opacity: 0.1;}.light-teal{fill: #006758; opacity: 1;}.light-green{fill: #1f801f; opacity: 1;}.cls-1{opacity:0.75;}</style>
  </defs>
  <title>IconLightDebugSelection</title>
  <g id="canvas" class="canvas">
    <path class="canvas" d="M16,16H0V0H16Z" />
  </g>
  <g id="level-1">
    <path class="light-defaultgrey-10" d="M15.5,2.71v12H3.5V7.152L9.016,4l-3.5-2h.078l1.183.71Z" />
    <path class="light-defaultgrey" d="M16,2.5v12l-.5.5H3.5L3,14.5V7.438l1-.572V14H15V3H7.266L5.516,2H15.5Z" />
    <g class="cls-1">
      <path class="light-defaultgrey-10" d="M7.562,10,8.5,8.5v-3h2v3l.937,1.5Z" />
      <path class="light-defaultgrey" d="M12.174,10.235,11.75,10h-.9l-.772-1.235L10,8.5V6H9V8.5l-.076.265L8.152,10h-.9l-.424.235L8,8.356V6H7V5.152L7.266,5H12V6H11V8.356Z" />
    </g>
    <path class="light-teal-10" d="M12.522,11.735a.5.5,0,0,1-.424.765H6.9a.5.5,0,0,1-.424-.765L7.25,10.5h4.5Z" />
    <path class="light-teal" d="M12.1,13H6.9a1,1,0,0,1-.848-1.53l.772-1.235L7.25,10h4.5l.424.235.772,1.235A1,1,0,0,1,12.1,13ZM7.527,11,6.9,12h5.2l-.625-1Z" />
    <path class="light-green" d="M7,4,0,8V0Z" />
  </g>
</svg>
