<svg xmlns="http://www.w3.org/2000/svg" viewBox="0 0 16 16">
  <defs>
    <style>.canvas{fill: none; opacity: 0;}.light-defaultgrey{fill: #212121; opacity: 1;}.light-defaultgrey-10{fill: #212121; opacity: 0.1;}.cls-1{opacity:0.75;}</style>
  </defs>
  <title>IconLightF1Help</title>
  <g id="canvas">
    <path class="canvas" d="M16,16H0V0H16Z" />
  </g>
  <g id="level-1">
    <path class="light-defaultgrey" d="M7.608,3.538A2.2,2.2,0,0,1,9.8,5.726c0,1.054-.7,1.5-1.295,2.115a1.519,1.519,0,0,0-.455,1.385H7.17A2.814,2.814,0,0,1,7.3,8.073a2.8,2.8,0,0,1,.745-1,3.563,3.563,0,0,0,.746-.83,1.275,1.275,0,0,0-.67-1.729A1.314,1.314,0,0,0,6.3,5.726H5.42A2.195,2.195,0,0,1,7.608,3.538Zm0,6.969a.75.75,0,1,0,.75.75A.75.75,0,0,0,7.608,10.507Z" />
    <g class="cls-1">
      <path class="light-defaultgrey-10" d="M13.5,13.5H1.5V1.5h12Z" />
      <path class="light-defaultgrey" d="M13.5,14H1.5L1,13.5V1.5L1.5,1h12l.5.5v12ZM2,13H13V2H2Z" />
    </g>
  </g>
</svg>
