<svg xmlns="http://www.w3.org/2000/svg" viewBox="0 0 16 16"><defs><style>.canvas{fill:none;opacity:0}.light-defaultgrey-10{fill:#212121;opacity:.1}.light-defaultgrey{fill:#212121;opacity:1}.light-teal{fill:#006758}.light-teal-10{fill:#006758;opacity:.1}.light-teal{opacity:1}.light-red,.white{fill:#c50b17;opacity:1}.white{fill:#fff}.cls-1{opacity:.75}</style></defs><title>IconLightLogError</title><g id="canvas"><path d="M16,0V16H0V0Z" class="canvas"/></g><g id="level-1"><path d="M7,12a4.936,4.936,0,0,1,6.5-4.746V1.5H2.5V3H4V4H2.5V6H4V7H2.5V9H4v1H2.5v2H4v1H2.5v1.5H7.694A4.946,4.946,0,0,1,7,12ZM6,4h5V5H6Z" class="light-defaultgrey-10"/><g class="cls-1"><path d="M4,3V4H1V3ZM1,7H4V6H1Zm0,3H4V9H1Zm0,3H4V12H1Z" class="light-defaultgrey"/></g><path d="M11.547,5.5h-6v-2h6Z" class="light-teal-10"/><path d="M11.547,3h-6l-.5.5v2l.5.5h6l.5-.5v-2Zm-.5,2h-5V4h5Z" class="light-teal"/><path d="M12,8a4,4,0,1,0,4,4A4,4,0,0,0,12,8Z" class="light-red"/><path d="M3,9H2V7H3ZM3,2H13V7.1a4.968,4.968,0,0,1,1,.321V1.5L13.5,1H2.5L2,1.5V3H3ZM3,4H2V6H3ZM7.422,14H3V13H2v1.5l.5.5H8.023A4.935,4.935,0,0,1,7.422,14ZM3,10H2v2H3Z" class="light-defaultgrey"/><path d="M12.707,12l1.147,1.146-.708.708L12,12.707l-1.146,1.147-.708-.708L11.293,12l-1.147-1.146.708-.708L12,11.293l1.146-1.147.708.708Z" class="white"/></g></svg>