<svg xmlns="http://www.w3.org/2000/svg" viewBox="0 0 16 16">
  <defs>
    <style>.canvas{fill: none; opacity: 0;}.light-blue{fill: #005dba; opacity: 1;}.light-defaultgrey{fill: #212121; opacity: 1;}</style>
  </defs>
  <title>IconLightOpenAttachment</title>
  <g id="canvas" class="canvas">
    <path class="canvas" d="M16,16H0V0H16Z" />
  </g>
  <g id="level-1">
    <path class="light-blue" d="M5.854,2.146v.707l-2,2-.707-.707L4.293,3H3A2,2,0,0,0,1,5V6H0V5A3,3,0,0,1,3,2H4.293L3.147.853,3.854.146Z" />
    <path class="light-defaultgrey" d="M13,5v6.5A3.386,3.386,0,0,1,9.75,15h-.5A3.386,3.386,0,0,1,6,11.5V4.121l.854-.854V1.732L6.826,1.7A2.392,2.392,0,0,1,8.5,1,2.6,2.6,0,0,1,11,3.682v7.167A1.55,1.55,0,0,1,9.5,12.44,1.548,1.548,0,0,1,8,10.872V7H9v3.849a.552.552,0,0,0,.5.591.552.552,0,0,0,.5-.591V3.682A1.6,1.6,0,0,0,8.5,2,1.6,1.6,0,0,0,7,3.682V11.5A2.388,2.388,0,0,0,9.25,14h.5A2.388,2.388,0,0,0,12,11.5V5Z" />
  </g>
</svg>
