<svg xmlns="http://www.w3.org/2000/svg" viewBox="0 0 16 16">
  <defs>
    <style>.canvas{fill: none; opacity: 0;}.light-blue{fill: #005dba; opacity: 1;}.light-purple{fill: #6936aa; opacity: 1;}.light-lightblue{fill: #0077a0; opacity: 1;}</style>
  </defs>
  <title>IconLightOpenLink</title>
  <g id="canvas" class="canvas">
    <path class="canvas" d="M16,16H0V0H16Z" />
  </g>
  <g id="level-1">
    <path class="light-blue" d="M5.854,2.146v.707l-2,2-.707-.707L4.293,3H3A2,2,0,0,0,1,5V6H0V5A3,3,0,0,1,3,2H4.293L3.147.853,3.854.146Z" />
    <path class="light-purple" d="M11,9a3,3,0,0,1-3,3H6a1.978,1.978,0,0,1,.278-1H8A2,2,0,0,0,8,7H4a2,2,0,0,0,0,4H5.184A2.966,2.966,0,0,0,5,12H4A3,3,0,0,1,4,6H8A3,3,0,0,1,11,9Z" />
    <path class="light-lightblue" d="M15,12a3,3,0,0,1-3,3H8A3,3,0,0,1,8,9h2a1.978,1.978,0,0,1-.278,1H8a2,2,0,0,0,0,4h4a2,2,0,0,0,0-4H10.816A2.966,2.966,0,0,0,11,9h1A3,3,0,0,1,15,12Z" />
  </g>
</svg>
