<svg xmlns="http://www.w3.org/2000/svg" viewBox="0 0 16 16"><defs><style>.canvas{fill:none;opacity:0}.light-defaultgrey-10{fill:#212121;opacity:.1}.light-defaultgrey{fill:#212121;opacity:1}.light-blue{fill:#005dba}.light-blue-10{fill:#005dba;opacity:.1}.light-blue{opacity:1}.cls-1{opacity:.75}</style></defs><title>WelcomeWebOnline</title><g id="canvas"><path d="M16,16H0V0H16Z" class="canvas"/></g><g id="level-1"><path d="M1.5,2.5v10h13V2.5Zm6.5,8a3,3,0,1,1,3-3A3,3,0,0,1,8,10.5Z" class="light-defaultgrey-10"/><g class="cls-1"><path d="M12,14v1H4V14c2,0,2-.6,2-1h4C10,13.35,10,14,12,14Z" class="light-defaultgrey"/></g><path d="M14.5,2H1.5L1,2.5v10l.5.5h13l.5-.5V2.5ZM14,12H2V3H14Z" class="light-defaultgrey"/><path d="M11,7.5a3,3,0,1,1-3-3A3,3,0,0,1,11,7.5Z" class="light-blue-10"/><path d="M8,4.125A3.375,3.375,0,1,0,11.375,7.5,3.379,3.379,0,0,0,8,4.125Zm2.235,2H9.726a4.347,4.347,0,0,0-.273-.81A2.662,2.662,0,0,1,10.235,6.125Zm.39,1.375a2.628,2.628,0,0,1-.076.625h-.7q.03-.3.03-.625t-.03-.625h.7A2.628,2.628,0,0,1,10.625,7.5ZM8,10.125c-.35,0-.728-.488-.945-1.25h1.89C8.728,9.637,8.35,10.125,8,10.125Zm-1.091-2a5.443,5.443,0,0,1,0-1.25H9.091a5.443,5.443,0,0,1,0,1.25ZM5.375,7.5a2.628,2.628,0,0,1,.076-.625h.7q-.03.3-.03.625t.03.625h-.7A2.628,2.628,0,0,1,5.375,7.5ZM8,4.875c.35,0,.728.488.945,1.25H7.055C7.272,5.363,7.65,4.875,8,4.875Zm-1.453.44a4.347,4.347,0,0,0-.273.81H5.765A2.662,2.662,0,0,1,6.547,5.315Zm-.782,3.56h.509a4.347,4.347,0,0,0,.273.81A2.662,2.662,0,0,1,5.765,8.875Zm3.688.81a4.347,4.347,0,0,0,.273-.81h.509A2.662,2.662,0,0,1,9.453,9.685Z" class="light-blue"/></g></svg>